<?xml version="1.0" encoding="utf-8"?>
<!-- Generator: Adobe Illustrator 19.2.1, SVG Export Plug-In . SVG Version: 6.00 Build 0)  -->
<svg version="1.1" id="Layer_1" xmlns="http://www.w3.org/2000/svg" xmlns:xlink="http://www.w3.org/1999/xlink" x="0px" y="0px"
	 viewBox="0 0 660 130" style="enable-background:new 0 0 660 130;" xml:space="preserve">
<style type="text/css">
	.st0{fill:none;stroke:#FFFFFF;stroke-width:15;stroke-linecap:square;stroke-miterlimit:10;}
	.st1{fill:none;stroke:#FFFFFF;stroke-width:15;stroke-miterlimit:10;}
</style>
<g>
	<path class="st0" d="M104.8,95.3C95.7,107.3,81.2,115,65,115c-27.6,0-50-22.4-50-50s22.4-50,50-50c16.2,0,30.6,7.7,39.8,19.7"/>
	<path class="st0" d="M420.4,115V15l80,40c0,0,7.7,40-30,40s-50,0-50,0"/>
	<line class="st1" x1="487.5" y1="117" x2="460.7" y2="95.2"/>
	<g>
		<line class="st0" x1="646" y1="115" x2="646" y2="15"/>
		<polyline class="st0" points="565,115 565,15 646,54.6 646,105.1 		"/>
	</g>
	<g>
		<line class="st0" x1="339" y1="15" x2="339" y2="115"/>
		<line class="st0" x1="329" y1="15" x2="349" y2="15"/>
		<line class="st0" x1="329" y1="115" x2="349" y2="115"/>
	</g>
	<polyline class="st0" points="188.1,76.3 255.8,106.9 215,19.8 166.4,112.2 	"/>
</g>
</svg>
